<?xml version="1.0" encoding="UTF-8"?>
<svg width="26px" height="29px" viewBox="0 0 26 29" version="1.1" xmlns="http://www.w3.org/2000/svg" xmlns:xlink="http://www.w3.org/1999/xlink">
    <title>logo_pink</title>
    <g id="logo_pink" stroke="none" stroke-width="1" fill="none" fill-rule="evenodd">
        <path d="M19.0915152,23.7028283 C17.1214141,25.6729293 14.439596,26.4949495 11.8737374,26.1734343 L16.9914141,21.0556566 C17.9179798,20.1291919 17.9179798,18.6269697 16.9914141,17.7005051 L14.709697,15.4187879 C14.4076768,15.1167677 13.9178788,15.1167677 13.6157576,15.4187879 C13.3137374,15.7209091 13.3137374,16.2107071 13.6157576,16.5128283 L15.6584848,18.5555556 C16.1063636,19.0035354 16.1063636,19.729697 15.6584848,20.1776768 L10.0815152,25.7545455 C8.8920202,25.3375758 7.77525253,24.6536364 6.82434343,23.7028283 C3.43686869,20.3152525 3.43686869,14.8230303 6.82434343,11.4355556 C8.79454545,9.46545455 11.4762626,8.64343434 14.0422222,8.96494949 L8.92444444,14.0827273 C7.9979798,15.0091919 7.9979798,16.5113131 8.92444444,17.4378788 L11.2061616,19.7193939 C11.5081818,20.0216162 11.9979798,20.0216162 12.300101,19.7193939 C12.6022222,19.4173737 12.6022222,18.9276768 12.300101,18.6254545 L10.2573737,16.5828283 C9.80949495,16.1348485 9.80949495,15.4086869 10.2573737,14.9607071 L15.8343434,9.38373737 C17.0238384,9.80080808 18.1406061,10.4846465 19.0915152,11.4355556 C22.4789899,14.8230303 22.4789899,20.3152525 19.0915152,23.7028283 M19.9991919,10.5278788 C19.059899,9.58848485 17.9786869,8.87818182 16.8253535,8.39272727 L18.2181818,7 L15.1970707,7.86737374 C11.9650505,7.12464646 8.43454545,8.01 5.91666667,10.5278788 C2.02777778,14.4166667 2.02777778,20.7216162 5.91666667,24.610404 C6.85606061,25.549798 7.93717172,26.26 9.09040404,26.7456566 L7.69767677,28.1383838 L10.7186869,27.2709091 C13.9508081,28.0137374 17.4813131,27.1283838 19.9991919,24.610404 C23.8879798,20.7216162 23.8879798,14.4166667 19.9991919,10.5278788" id="Fill-1" fill="#FF2968"></path>
    </g>
</svg>