<?xml version="1.0" encoding="UTF-8"?>
<svg width="26px" height="29px" viewBox="0 0 26 29" version="1.1" xmlns="http://www.w3.org/2000/svg" xmlns:xlink="http://www.w3.org/1999/xlink">
    <title>logo_pink</title>
    <g id="logo_pink" stroke="none" stroke-width="1" fill="none" fill-rule="evenodd">
        <path d="M13,8 C18.5228475,8 23,12.4771525 23,18 C23,23.5228475 18.5228475,28 13,28 C7.4771525,28 3,23.5228475 3,18 L3,17.8355263 C3,22.9768613 7.16787552,27.1447368 12.3092105,27.1447368 C17.4505456,27.1447368 21.6184211,22.9768613 21.6184211,17.8355263 C21.6184211,12.6941913 17.4505456,8.52631579 12.3092105,8.52631579 C8.80815351,8.52631579 5.75849949,10.4590018 4.16894685,13.3156754 L4.033,13.568 L4.16467551,13.3122168 C5.84488975,10.151854 9.17114866,8 13,8 Z M12.2584266,8.83333333 C15.3621032,8.83333333 18.0738059,10.576293 19.53557,13.1711609 C18.1996261,11.0457117 15.8892413,9.64102564 13.2629569,9.64102564 C9.1289005,9.64102564 5.77758562,13.1215812 5.77758562,17.4150641 C5.77758562,21.708547 9.1289005,25.1891026 13.2629569,25.1891026 C16.7335575,25.1891026 19.6524938,22.7360602 20.5,19.40835 C19.6917169,23.3648226 16.3088657,26.3333333 12.2584266,26.3333333 C7.60537606,26.3333333 3.83333333,22.4158249 3.83333333,17.5833334 C3.83333333,12.7508418 7.60537606,8.83333333 12.2584266,8.83333333 Z M15.6726212,13 L15.9323734,13.702376 L15.8843771,13.7202772 C15.8568185,13.7305557 15.8298169,13.7409857 15.8033666,13.7515746 L15.7511995,13.7729661 C15.0653955,14.0610679 14.7689836,14.4655425 14.7548758,15.1241618 L14.7543295,15.6661257 L14.7798722,15.6691095 C15.5587549,15.7616607 16.2705479,15.9234806 16.8804761,16.1458556 L16.9373573,16.1668804 L16.9919889,16.1876246 C17.0157215,16.1966216 17.0392415,16.2056932 17.0625477,16.2148387 L17.1318241,16.2424958 C17.1775795,16.2610805 17.222476,16.2799576 17.2665056,16.2991207 L17.3318991,16.3280792 C17.3642698,16.3426649 17.3961507,16.3574098 17.4275384,16.3723113 L17.4896556,16.4023222 C18.3603065,16.8304119 18.8333333,17.3827822 18.8333333,17.9999002 C18.8333333,18.6533193 18.3030195,19.2341493 17.3318221,19.6717504 L17.2664234,19.7007108 C17.1783569,19.7390398 17.0868226,19.7762246 16.9918832,19.8122157 C16.3649006,20.0483222 15.6408436,20.2210612 14.8567756,20.3210082 L14.7830945,20.3301646 L14.7543295,20.3335189 L14.7543437,20.8253732 C14.7543437,21.8496796 14.2531206,22.5469925 13.2314361,22.9467574 L13.2003166,22.9587804 L13.0888304,23 L12.8290044,22.2974244 L12.8770007,22.2795233 C13.6578281,21.9882991 13.9915125,21.5754217 14.006502,20.8756387 L14.0068989,20.850821 L14.0070342,20.8253732 L14.0070334,20.3982961 L13.9450496,20.4029282 C13.7105412,20.4193256 13.476031,20.429574 13.2415199,20.4336733 L13.1242643,20.4352106 L13.0070085,20.435723 C12.715635,20.435723 12.4182925,20.4262428 12.1372305,20.4078555 L12.0441767,20.4013973 L12.0069298,20.39848 L12.006983,20.8253732 C12.006983,21.8453207 11.4970547,22.5451514 10.4703608,22.9466533 L10.4390907,22.9587288 L10.3274518,23 L10.0676266,22.2974244 L10.1156229,22.2795233 C10.8964502,21.9882991 11.2301346,21.5754217 11.2451242,20.8756387 L11.2456375,20.3336414 L11.2201277,20.330691 C10.4412451,20.2381398 9.72945206,20.0763198 9.11952389,19.8539448 L9.06264262,19.8329201 L8.97282276,19.798717 L8.90337628,19.7714394 L8.83517613,19.7436869 C7.76524493,19.3005475 7.16666667,18.6812716 7.16666667,17.9999002 C7.16666667,17.4476308 7.5599044,16.9361551 8.27868342,16.5261794 L8.33534987,16.4944398 C8.44044195,16.4366309 8.55214186,16.3809256 8.6702522,16.327501 L8.7353106,16.2985875 C8.82289961,16.2603406 8.9138603,16.223317 9.00811673,16.1875847 C9.63509943,15.9514782 10.3591563,15.7787392 11.1432244,15.6787923 L11.2169055,15.6696358 L11.2456375,15.666187 L11.2456563,15.1744273 C11.2456563,14.1478136 11.7492081,13.4517693 12.7816973,13.0529147 L12.8452428,13.0289869 L12.9252607,13 L13.1850127,13.702376 L13.1370164,13.7202772 C12.356189,14.0115013 12.0225046,14.4243788 12.0075151,15.1241618 L12.0071182,15.1489794 L12.006983,15.1744273 L12.0069298,15.601471 L12.0689675,15.5968722 C12.3034759,15.5804749 12.5379861,15.5702265 12.7724972,15.5661271 L12.8897528,15.5645899 L13.0070085,15.5640775 C13.2983821,15.5640775 13.5957246,15.5735576 13.8767866,15.5919449 L13.9698404,15.5984031 L14.0070334,15.6012872 L14.0070342,15.1744273 C14.0070342,14.1398505 14.5183226,13.4388874 15.5606661,13.0411696 L15.5924148,13.0292103 L15.6726212,13 Z M13.0889032,16.3149174 L13.0070085,16.3146673 C12.7099385,16.3146673 12.4222674,16.3238576 12.1441441,16.3422233 L12.0517902,16.348685 L12.0069298,16.3521393 L12.0069298,19.6476278 L12.0366594,19.6499696 C12.3200885,19.6711752 12.6244327,19.683051 12.9251139,19.684883 L13.0070085,19.6851331 C13.3040786,19.6851331 13.5917497,19.6759429 13.869873,19.6575771 L13.962227,19.6511154 L14.0070334,19.6475665 L14.0070334,16.3521393 L13.9773577,16.3498308 C13.6939286,16.3286253 13.3895844,16.3167494 13.0889032,16.3149174 Z M11.2456375,16.4182035 L11.2368063,16.41942 C10.5062428,16.5168867 9.8342638,16.6785236 9.28262219,16.890199 L9.25149256,16.9021481 L9.19019209,16.9262803 C9.1497533,16.9424706 9.11017369,16.9588626 9.07146993,16.9754404 L9.01407326,17.0004445 C9.00461732,17.0046344 8.99521664,17.0088355 8.98587149,17.0130474 L8.9304689,17.0384474 L8.87641134,17.0640967 L8.87641134,17.0640967 L8.8237113,17.0899833 L8.77238128,17.1160954 C8.68797986,17.1597969 8.60933895,17.2043886 8.53671897,17.2496239 L8.49387158,17.2768404 C8.48685145,17.2813887 8.47989206,17.2859429 8.47299367,17.2905028 L8.43233724,17.3179288 C8.10632088,17.5424334 7.92799336,17.7794299 7.92799336,17.9999002 C7.92799336,18.202373 8.07839454,18.4187839 8.35542388,18.6266412 L8.39310943,18.6543028 C8.40592001,18.6635052 8.41897864,18.6726887 8.43228323,18.6818513 L8.47293276,18.7092746 C8.47982997,18.7138341 8.48678814,18.7183879 8.49380702,18.7229357 L8.53664667,18.7501492 C8.57294997,18.7727644 8.61075788,18.7952184 8.65003779,18.8174804 L8.69787816,18.8441007 L8.79774817,18.896741 L8.84975276,18.9227373 L8.95783853,18.9740229 L8.98570012,18.9866884 L8.98570012,18.9866884 L9.04242055,19.0118219 C9.05198423,19.0159884 9.06160288,19.0201435 9.07127624,19.0242869 L9.12997077,19.0490063 L9.18996572,19.0734347 C9.20007255,19.0774812 9.21023304,19.081515 9.22044694,19.085536 L9.28236904,19.1095058 C9.83585999,19.3168343 10.4710776,19.4730041 11.1611991,19.5700141 L11.2456375,19.5815023 L11.2456375,16.4182035 Z M14.7543295,16.4182648 L14.7543295,19.5815023 L14.7631937,19.5803804 C15.4716189,19.4858673 16.1249564,19.3310141 16.6668988,19.1287064 L16.7485074,19.0976524 L16.8098079,19.0735201 L16.8698196,19.0490854 C16.8797135,19.0449884 16.8895531,19.0408793 16.8993382,19.0367583 L16.9573934,19.0118921 L17.0141285,18.9867531 C17.0328188,18.9783292 17.051287,18.9698619 17.0695311,18.961353 L17.1235886,18.9357038 C17.2392472,18.879869 17.3453466,18.822363 17.4413147,18.7637276 L17.5270063,18.7092976 C17.8788246,18.4767412 18.0720066,18.2293694 18.0720066,17.9999002 C18.0720066,17.7749305 17.8863261,17.5327532 17.5475757,17.3042211 L17.506193,17.2768647 C17.4921552,17.2677691 17.4778746,17.2586973 17.4633533,17.2496512 L17.4190692,17.2225924 C17.4040685,17.2135998 17.3888291,17.2046351 17.3733532,17.1957001 L17.3262179,17.1689861 C17.294324,17.1512389 17.2614921,17.1336186 17.2277391,17.1161408 L17.1764206,17.0900331 C17.1677531,17.0857003 17.1590286,17.0813769 17.1502472,17.0770632 L17.0968796,17.0512986 C17.0878721,17.0470245 17.0788083,17.0427605 17.0696885,17.0385069 L17.0142999,17.0131121 C17.0049571,17.0089011 16.9955588,17.0047009 16.9861053,17.0005119 L16.9287237,16.9755135 C16.8610102,16.9465092 16.7906162,16.9180747 16.7176309,16.8902946 C16.1453285,16.6759197 15.4858075,16.5162927 14.7685376,16.4201399 L14.7543295,16.4182648 Z" id="Combined-Shape" fill="#FF2968" fill-rule="nonzero"></path>
    </g>
</svg>