<?xml version="1.0" encoding="UTF-8"?>
<svg width="99px" height="16px" viewBox="0 0 99 16" version="1.1" xmlns="http://www.w3.org/2000/svg" xmlns:xlink="http://www.w3.org/1999/xlink">
    <title>wordmark_pink</title>
    <g id="wordmark_pink" stroke="none" stroke-width="1" fill="none" fill-rule="evenodd">
        <path d="M1.77101968,14.8547486 L1.77101968,5.37709497 L9.20930233,14.8547486 L10.6615385,14.8547486 L10.6615385,2.1452514 L8.89051878,2.1452514 L8.89051878,11.622905 L1.45223614,2.1452514 L0,2.1452514 L0,14.8547486 L1.77101968,14.8547486 Z M23.3774597,14.8547486 L23.3774597,13.2751397 L16.1516995,13.2751397 L16.1516995,9.17178771 L22.3679785,9.17178771 L22.3679785,7.62849162 L16.1516995,7.62849162 L16.1516995,3.72486034 L23.129517,3.72486034 L23.129517,2.1452514 L14.3806798,2.1452514 L14.3806798,14.8547486 L23.3774597,14.8547486 Z M30.8157424,14.8547486 L34.19839,4.70530726 L37.5810376,14.8547486 L39.4406082,14.8547486 L43.5847943,2.1452514 L41.9023256,2.1452514 L38.4842576,12.5307263 L35.0661896,2.1452514 L33.4368515,2.1452514 L29.9479428,12.476257 L26.6007156,2.1452514 L24.7765653,2.1452514 L28.9207513,14.8547486 L30.8157424,14.8547486 Z M49.3583184,15 C52.6347048,15 54.1577818,13.3296089 54.1577818,11.3868715 C54.1577818,6.72067039 46.6486583,8.66340782 46.6486583,5.55865922 C46.6486583,4.45111732 47.5518784,3.54329609 49.6593918,3.54329609 C50.757424,3.54329609 51.9794275,3.87011173 53.0597496,4.57821229 L53.644186,3.12569832 C52.6169946,2.39944134 51.1116279,2 49.6593918,2 C46.4007156,2 44.913059,3.67039106 44.913059,5.63128492 C44.913059,10.3519553 52.4221825,8.39106145 52.4221825,11.4958101 C52.4221825,12.603352 51.5012522,13.4567039 49.3583184,13.4567039 C47.7644007,13.4567039 46.1881932,12.8393855 45.267263,11.9860335 L44.6119857,13.4022346 C45.6037567,14.3463687 47.4633274,15 49.3583184,15 Z M61.4898032,14.8547486 L64.8724508,4.70530726 L68.2550984,14.8547486 L70.1146691,14.8547486 L74.2588551,2.1452514 L72.5763864,2.1452514 L69.1583184,12.5307263 L65.7402504,2.1452514 L64.1109123,2.1452514 L60.6220036,12.476257 L57.2747764,2.1452514 L55.4506261,2.1452514 L59.5948122,14.8547486 L61.4898032,14.8547486 Z M75.9767442,14.8547486 L77.3404293,11.6773743 L83.9286225,11.6773743 L85.2923077,14.8547486 L87.1518784,14.8547486 L81.5200358,2.1452514 L79.7667263,2.1452514 L74.1525939,14.8547486 L75.9767442,14.8547486 Z M83.3087657,10.2248603 L77.9602862,10.2248603 L80.6345259,3.9972067 L83.3087657,10.2248603 Z M90.7647585,14.8547486 L90.7647585,11.0055866 L93.8286225,11.0055866 C97.0518784,11.0055866 99,9.33519553 99,6.57541899 C99,3.81564246 97.0518784,2.1452514 93.8286225,2.1452514 L88.9937388,2.1452514 L88.9937388,14.8547486 L90.7647585,14.8547486 Z M93.7754919,9.42597765 L90.7647585,9.42597765 L90.7647585,3.72486034 L93.7754919,3.72486034 C96.0423971,3.72486034 97.2289803,4.75977654 97.2289803,6.57541899 C97.2289803,8.39106145 96.0423971,9.42597765 93.7754919,9.42597765 Z" id="NEWSWAP" fill="#FF2968" fill-rule="nonzero"></path>
    </g>
</svg>