<?xml version="1.0" encoding="UTF-8"?>
<svg width="99px" height="16px" viewBox="0 0 99 16" version="1.1" xmlns="http://www.w3.org/2000/svg" xmlns:xlink="http://www.w3.org/1999/xlink">
    <title>wordmark_white</title>
    <g id="wordmark_white" stroke="none" stroke-width="1" fill="none" fill-rule="evenodd">
        <path d="M49.3976221,2 C50.8956406,2 52.4306471,2.47875354 53.5033024,3.19688385 L53.5033024,3.19688385 L52.8745044,4.50424929 C51.7093789,3.74929178 50.3408189,3.43626063 49.3051518,3.43626063 C47.6406868,3.43626063 46.5495375,4.09915015 46.5495375,5.20396601 C46.5495375,6.7810365 48.1631918,7.22856975 49.869847,7.74782346 L50.2975683,7.87982623 C52.08048,8.44185664 53.8268028,9.19032938 53.8177715,11.4830028 C53.8177715,13.6189802 51.9128136,15 49.1387053,15 C47.2523116,15 45.4029061,14.1898017 44.1822984,13.029745 L44.1822984,13.029745 L44.8480844,11.7592068 C46.050198,12.9008499 47.6961689,13.5637394 49.1571993,13.5637394 C51.0250989,13.5637394 52.1902244,12.8087818 52.1902244,11.5566573 C52.1985649,10.0037772 50.7211593,9.52197238 49.0963961,9.03708347 L48.6700821,8.90981447 C46.8158633,8.35189124 44.9220606,7.670666 44.9220606,5.3144476 C44.9220606,3.28895184 46.715984,2 49.3976221,2 Z M1.5350066,2.05524079 L9.30250988,12.5325779 L9.30250988,2.05524079 L10.7635402,2.05524079 L10.7635402,14.9447592 L9.24702771,14.9447592 L1.47952443,4.4858357 L1.47952443,14.9447592 L-1.09245946e-13,14.9447592 L-1.09245946e-13,2.05524079 L1.5350066,2.05524079 Z M23.4874504,2.05524079 L23.4874504,3.41784702 L16.1822985,3.41784702 L16.1822985,7.7450425 L22.7107001,7.7450425 L22.7107001,9.08923513 L16.1822985,9.08923513 L16.1822985,13.5821529 L23.7278731,13.5821529 L23.7278731,14.9447592 L14.702774,14.9447592 L14.702774,2.05524079 L23.4874504,2.05524079 Z M26.4834874,2.05524079 L30.034346,13.2875354 L33.5482165,2.05524079 L35.027741,2.05524079 L38.5785997,13.2875354 L42.0924702,2.05524079 L43.6274768,2.05524079 L39.2813737,14.9447592 L37.7648612,14.9447592 L34.2694847,4.02549575 L30.7371201,14.9447592 L29.2206076,14.9447592 L24.8929986,2.05524079 L26.4834874,2.05524079 Z M56.5918096,2.05524079 L60.1426682,13.2875354 L63.6565388,2.05524079 L65.1360632,2.05524079 L68.6869218,13.2875354 L72.2007924,2.05524079 L73.735799,2.05524079 L69.389696,14.9447592 L67.8731834,14.9447592 L64.377807,4.02549575 L60.8454424,14.9447592 L59.3289298,14.9447592 L55.0013209,2.05524079 L56.5918096,2.05524079 Z M80.2642006,2.05524079 L86.0528399,14.9447592 L84.4438571,14.9447592 L82.9828267,11.6487252 L75.9365916,11.6487252 L74.4940553,14.9447592 L72.9220606,14.9447592 L78.7291939,2.05524079 L80.2642006,2.05524079 Z M92.9511229,2.05524079 C96.1505939,2.05524079 98,3.6388102 98,6.38243626 C98,9.14148993 96.2492109,10.7674819 93.2075711,10.853358 L92.9511229,10.8569405 L89.5667107,10.8569405 L89.5667107,14.9447592 L88.087186,14.9447592 L88.087186,2.05524079 L92.9511229,2.05524079 Z M79.4504621,3.6572238 L76.5468954,10.286119 L82.3910169,10.286119 L79.4504621,3.6572238 Z M92.8956407,3.41784702 L89.5667107,3.41784702 L89.5667107,9.49433428 L92.8956407,9.49433428 C95.2258917,9.49433428 96.5759574,8.44475921 96.5759574,6.41926346 C96.5759574,4.4490085 95.2258917,3.41784702 92.8956407,3.41784702 Z" id="Combined-Shape" fill="#FFFFFF" fill-rule="nonzero"></path>
    </g>
</svg>